# xmcd CD database file
#
# Track frame offsets:
#	150
#	18597
#	36155
#	47260
#	76203
#	95944
#	116674
#	136677
#	155723
#	176426
#	190099
#	207037
#	229208
#	256369
#	270471
#	293177
#
# Disc length: 4248 seconds
#
# Revision: 0
# Processed by: cddbd v1.5.2PL0 Copyright (c) Steve Scherf et al.
# Submitted via: CDex 1.70beta2
#
DISCID=d8109610
DTITLE=吉幾三 - Best★BEST 吉幾三②
DYEAR=1900
DGENRE=Blues
TTITLE0=酒よ
TTITLE1=ふるさとはこの町
TTITLE2=俺はぜったい！プレスリー
TTITLE3=岩木川
TTITLE4=女のかぞえ唄
TTITLE5=男の舟唄
TTITLE6=東日流 (つがる)
TTITLE7=酔待酒 (よいまちざけ)
TTITLE8=情炎
TTITLE9=これが本当のゴルフだ!!
TTITLE10=帰郷
TTITLE11=津軽路
TTITLE12=娘に…
TTITLE13=故郷
TTITLE14=港
TTITLE15=と･も･子…
EXTD=
EXTT0=
EXTT1=
EXTT2=
EXTT3=
EXTT4=
EXTT5=
EXTT6=
EXTT7=
EXTT8=
EXTT9=
EXTT10=
EXTT11=
EXTT12=
EXTT13=
EXTT14=
EXTT15=
PLAYORDER=
